<svg width="44" height="39" viewBox="0 0 44 39" fill="none" xmlns="http://www.w3.org/2000/svg">
<path d="M0 3.67446C0 1.91683 1.40446 0.496826 3.14286 0.496826H40.8571C42.5955 0.496826 44 1.91683 44 3.67446C44 5.43209 42.5955 6.8521 40.8571 6.8521H3.14286C1.40446 6.8521 0 5.43209 0 3.67446ZM0 19.5626C0 17.805 1.40446 16.385 3.14286 16.385H40.8571C42.5955 16.385 44 17.805 44 19.5626C44 21.3203 42.5955 22.7403 40.8571 22.7403H3.14286C1.40446 22.7403 0 21.3203 0 19.5626ZM44 35.4508C44 37.2085 42.5955 38.6285 40.8571 38.6285H3.14286C1.40446 38.6285 0 37.2085 0 35.4508C0 33.6932 1.40446 32.2732 3.14286 32.2732H40.8571C42.5955 32.2732 44 33.6932 44 35.4508Z" fill="#7C3B6D"/>
</svg>
